# Blender v2.79 (sub 0) OBJ File: 'restaurant.blend'
# www.blender.org
mtllib table.mtl
o Cube.010_Cube.014
v 2.059657 1.955542 -3.211065
v 2.059657 1.955542 -1.211065
v 0.059657 1.955542 -1.211065
v 0.059657 1.955542 -3.211065
v 2.059658 1.698213 -3.211064
v 2.059656 1.698213 -1.211064
v 0.059657 1.698213 -1.211065
v 0.059657 1.698213 -3.211065
v 1.059657 0.406266 -2.462603
v 1.059657 1.698213 -2.462603
v 1.237521 0.406266 -2.388929
v 1.237521 1.698213 -2.388929
v 1.311195 0.406266 -2.211065
v 1.311195 1.698213 -2.211065
v 1.237521 0.406266 -2.033200
v 1.237521 1.698213 -2.033200
v 1.059657 0.406266 -1.959527
v 1.059657 1.698213 -1.959527
v 0.881793 0.406266 -2.033201
v 0.881793 1.698213 -2.033201
v 0.808119 0.406266 -2.211065
v 0.808119 1.698213 -2.211065
v 0.881793 0.406266 -2.388929
v 0.881793 1.698213 -2.388929
vn 0.0000 1.0000 0.0000
vn 0.0000 -1.0000 -0.0000
vn 1.0000 -0.0000 0.0000
vn -0.0000 0.0000 1.0000
vn -1.0000 0.0000 -0.0000
vn 0.0000 -0.0000 -1.0000
vn 0.3827 0.0000 -0.9239
vn 0.9239 0.0000 -0.3827
vn 0.9239 0.0000 0.3827
vn 0.3827 0.0000 0.9239
vn -0.3827 0.0000 0.9239
vn -0.9239 0.0000 0.3827
vn -0.9239 0.0000 -0.3827
vn -0.3827 0.0000 -0.9239
usemtl TableTop
s off
f 1//1 4//1 3//1 2//1
f 5//2 6//2 7//2 8//2
f 1//3 2//3 6//3 5//3
f 2//4 3//4 7//4 6//4
f 3//5 4//5 8//5 7//5
f 5//6 8//6 4//6 1//6
f 12//1 10//1 24//1 22//1 20//1 18//1 16//1 14//1
f 9//2 11//2 13//2 15//2 17//2 19//2 21//2 23//2
usemtl TableFoot
f 9//7 10//7 12//7 11//7
f 11//8 12//8 14//8 13//8
f 13//9 14//9 16//9 15//9
f 15//10 16//10 18//10 17//10
f 17//11 18//11 20//11 19//11
f 19//12 20//12 22//12 21//12
f 21//13 22//13 24//13 23//13
f 23//14 24//14 10//14 9//14
