# Blender v2.78 (sub 0) OBJ File: 'burger.blend'
# www.blender.org
mtllib burger.mtl
o bread_bottom_Icosphere.001
v 0.000000 0.554085 0.000000
v 0.723563 0.415226 0.525725
v -0.276371 0.415226 0.850649
v -0.894372 0.415225 0.000000
v -0.276371 0.415226 -0.850649
v 0.723563 0.415226 -0.525725
v 0.276371 0.190542 0.850649
v -0.723563 0.190542 0.525725
v -0.723563 0.190542 -0.525725
v 0.276371 0.190542 -0.850649
v 0.894372 0.190543 0.000000
v 0.000000 0.051683 0.000000
v -0.162446 0.516569 0.499995
v 0.425297 0.516569 0.309011
v 0.262853 0.434950 0.809012
v 0.850596 0.434949 0.000000
v 0.425297 0.516569 -0.309011
v -0.525698 0.516568 0.000000
v -0.688147 0.434949 0.499997
v -0.162446 0.516569 -0.499995
v -0.688147 0.434949 -0.499997
v 0.262853 0.434950 -0.809012
v 0.688147 0.170818 0.499997
v -0.262853 0.170818 0.809012
v -0.850596 0.170819 0.000000
v -0.262853 0.170818 -0.809012
v 0.688147 0.170818 -0.499997
v 0.162446 0.089199 0.499995
v 0.525698 0.089199 0.000000
v -0.425297 0.089199 0.309011
v -0.425297 0.089199 -0.309011
v 0.162446 0.089199 -0.499995
v -0.854210 0.083886 0.854263
v -0.854210 0.139823 0.854263
v -0.854210 0.083886 -0.854263
v -0.854210 0.139823 -0.854263
v 0.854210 0.083886 0.854263
v 0.854211 0.139823 0.854263
v 0.854210 0.083886 -0.854263
v 0.854211 0.139823 -0.854263
v 0.000000 0.252385 0.000000
v 0.648732 0.046043 0.471355
v -0.247789 0.046043 0.762675
v -0.801876 0.046041 0.000000
v -0.247789 0.046043 -0.762675
v 0.648732 0.046043 -0.471355
v 0.247789 -0.287835 0.762675
v -0.648732 -0.287835 0.471355
v -0.648732 -0.287835 -0.471355
v 0.247789 -0.287835 -0.762675
v 0.801876 -0.287833 0.000000
v -0.000000 -0.494178 0.000000
v -0.145646 0.196637 0.448286
v 0.381313 0.196637 0.277053
v 0.235669 0.075352 0.725343
v 0.762627 0.075351 0.000000
v 0.381313 0.196637 -0.277053
v -0.471330 0.196636 0.000000
v -0.616979 0.075351 0.448287
v -0.145646 0.196637 -0.448286
v -0.616979 0.075351 -0.448287
v 0.235669 0.075352 -0.725343
v 0.852647 -0.120896 0.277054
v 0.852647 -0.120896 -0.277054
v 0.000000 -0.120896 0.896580
v 0.526965 -0.120896 0.725348
v -0.852647 -0.120896 0.277054
v -0.526965 -0.120896 0.725348
v -0.526965 -0.120896 -0.725348
v -0.852647 -0.120896 -0.277054
v 0.526965 -0.120896 -0.725348
v 0.000000 -0.120896 -0.896580
v 0.616979 -0.317144 0.448287
v -0.235669 -0.317144 0.725343
v -0.762627 -0.317144 0.000000
v -0.235669 -0.317144 -0.725343
v 0.616979 -0.317144 -0.448287
v 0.145645 -0.438430 0.448286
v 0.471330 -0.438429 0.000000
v -0.381313 -0.438430 0.277053
v -0.381313 -0.438430 -0.277053
v 0.145645 -0.438430 -0.448286
v -0.276371 -0.385480 0.850649
v 0.723563 -0.385480 0.525725
v 0.723563 -0.385480 -0.525725
v -0.276371 -0.385480 -0.850649
v -0.894372 -0.385478 0.000000
v -0.000000 -0.597789 0.000000
v -0.951000 -0.213713 0.309013
v -0.951000 -0.213713 -0.309013
v 0.000000 -0.213714 1.000000
v -0.587750 -0.213713 0.809017
v 0.951000 -0.213714 0.309013
v 0.587750 -0.213714 0.809017
v 0.587750 -0.213714 -0.809017
v 0.951000 -0.213714 -0.309013
v -0.587750 -0.213713 -0.809017
v 0.000000 -0.213714 -1.000000
v -0.688147 -0.415636 0.499997
v 0.262853 -0.415636 0.809012
v 0.850596 -0.415636 0.000000
v 0.262853 -0.415636 -0.809012
v -0.688147 -0.415636 -0.499997
v -0.162446 -0.540429 0.499995
v -0.525698 -0.540428 0.000000
v 0.425297 -0.540429 0.309011
v 0.425297 -0.540429 -0.309011
v -0.162446 -0.540429 -0.499995
v 0.276371 0.823897 0.850649
v -0.723563 0.823897 0.525725
v -0.723563 0.823897 -0.525725
v 0.276371 0.823897 -0.850649
v 0.894372 0.823893 0.000000
v 0.000000 1.376677 0.000000
v 0.951000 0.376677 0.309013
v 0.951000 0.376677 -0.309013
v 0.000000 0.376677 1.000000
v 0.587750 0.376677 0.809017
v -0.951000 0.376677 0.309013
v -0.587750 0.376677 0.809017
v -0.587750 0.376677 -0.809017
v -0.951000 0.376677 -0.309013
v 0.587750 0.376677 -0.809017
v 0.000000 0.376677 -1.000000
v 0.688147 0.902413 0.499997
v -0.262853 0.902415 0.809012
v -0.850596 0.902413 0.000000
v -0.262853 0.902415 -0.809012
v 0.688147 0.902413 -0.499997
v 0.162446 1.227331 0.499995
v 0.525698 1.227329 0.000000
v -0.425297 1.227331 0.309011
v -0.425297 1.227331 -0.309011
v 0.162446 1.227331 -0.499995
vn -0.2177 -0.9169 0.3345
vn 0.2509 -0.9169 0.3103
vn 0.3727 -0.9169 -0.1427
vn -0.0205 -0.9169 -0.3985
vn -0.3854 -0.9169 -0.1036
vn -0.1081 -0.9910 -0.0786
vn -0.2278 -0.9595 -0.1655
vn -0.2177 -0.9169 -0.3345
vn 0.0413 -0.9910 -0.1271
vn 0.0870 -0.9596 -0.2678
vn 0.2509 -0.9169 -0.3103
vn 0.1337 -0.9910 0.0000
vn 0.2816 -0.9595 0.0000
vn 0.3727 -0.9169 0.1427
vn 0.0413 -0.9910 0.1271
vn 0.0870 -0.9596 0.2678
vn -0.0205 -0.9169 0.3985
vn -0.1081 -0.9910 0.0786
vn -0.2278 -0.9595 0.1655
vn -0.3854 -0.9169 0.1036
vn -0.6967 -0.6736 -0.2467
vn -0.7244 -0.4452 -0.5263
vn -0.4500 -0.6736 -0.5863
vn 0.0194 -0.6736 -0.7388
vn 0.2767 -0.4453 -0.8516
vn 0.4186 -0.6736 -0.6091
vn 0.7087 -0.6736 -0.2099
vn 0.8954 -0.4452 0.0000
vn 0.7087 -0.6736 0.2099
vn 0.4186 -0.6736 0.6091
vn 0.2767 -0.4453 0.8516
vn 0.0194 -0.6736 0.7388
vn -0.4500 -0.6736 0.5863
vn -0.7244 -0.4452 0.5263
vn -0.6967 -0.6736 0.2467
vn -0.2935 -0.3131 -0.9032
vn 0.7684 -0.3131 -0.5582
vn 0.7684 -0.3131 0.5582
vn -0.2935 -0.3131 0.9032
vn -0.9497 -0.3131 0.0000
vn 0.0000 1.0000 -0.0000
vn 0.4090 0.6617 0.6284
vn -0.4713 0.6617 0.5831
vn -0.7002 0.6617 -0.2680
vn 0.0385 0.6617 -0.7488
vn 0.7241 0.6617 -0.1947
vn 0.2680 0.9435 -0.1947
vn 0.4911 0.7946 -0.3568
vn 0.4090 0.6617 -0.6284
vn -0.1024 0.9435 -0.3151
vn -0.1876 0.7947 -0.5773
vn -0.4713 0.6617 -0.5831
vn -0.3313 0.9435 0.0000
vn -0.6071 0.7946 0.0000
vn -0.7002 0.6617 0.2680
vn -0.1024 0.9435 0.3151
vn -0.1876 0.7947 0.5773
vn 0.0385 0.6617 0.7488
vn 0.2680 0.9435 0.1947
vn 0.4911 0.7946 0.3568
vn 0.7241 0.6617 0.1947
vn 0.8897 0.3304 -0.3151
vn 0.7947 0.1876 -0.5773
vn 0.5746 0.3304 -0.7488
vn -0.0247 0.3304 -0.9435
vn -0.3035 0.1876 -0.9342
vn -0.5346 0.3304 -0.7779
vn -0.9050 0.3304 -0.2680
vn -0.9822 0.1876 0.0000
vn -0.9050 0.3304 0.2680
vn -0.5346 0.3304 0.7779
vn -0.3035 0.1876 0.9342
vn -0.0247 0.3304 0.9435
vn 0.5746 0.3304 0.7488
vn 0.7947 0.1876 0.5773
vn 0.8897 0.3304 0.3151
vn 0.3066 0.1256 -0.9435
vn -0.8026 0.1256 -0.5831
vn -0.8026 0.1256 0.5831
vn 0.3066 0.1256 0.9435
vn 0.9921 0.1256 0.0000
vn 0.0000 -1.0000 -0.0000
vn 0.0272 0.9961 0.0836
vn 0.2557 0.9618 0.0979
vn -0.0711 0.9961 0.0516
vn -0.0711 0.9961 -0.0516
vn 0.0272 0.9961 -0.0836
vn 0.5878 -0.0000 -0.8090
vn 0.1493 -0.9618 0.2295
vn -0.1721 -0.9618 0.2129
vn -0.2557 -0.9618 -0.0979
vn 0.0141 -0.9618 -0.2734
vn 0.2644 -0.9618 -0.0711
vn 0.0711 -0.9961 -0.0516
vn 0.1525 -0.9821 -0.1108
vn 0.1493 -0.9618 -0.2295
vn -0.0272 -0.9961 -0.0836
vn -0.0582 -0.9821 -0.1792
vn -0.1721 -0.9618 -0.2129
vn -0.0879 -0.9961 0.0000
vn -0.1885 -0.9821 0.0000
vn -0.2557 -0.9618 0.0979
vn -0.0272 -0.9961 0.0836
vn -0.0582 -0.9821 0.1792
vn 0.0141 -0.9618 0.2734
vn 0.0711 -0.9961 0.0516
vn 0.1525 -0.9821 0.1108
vn 0.2644 -0.9618 0.0711
vn -0.5878 0.0000 -0.8090
vn -0.9511 -0.0000 0.3090
vn 0.0000 -0.0000 1.0000
vn 0.9511 0.0000 0.3090
vn 0.0000 -0.0000 -1.0000
vn -0.9511 -0.0000 -0.3090
vn -0.5878 0.0000 0.8090
vn 0.5878 -0.0000 0.8090
vn 0.9511 0.0000 -0.3090
vn 0.1721 0.9618 -0.2129
vn 0.0582 0.9821 -0.1792
vn -0.0141 0.9618 -0.2734
vn -0.1493 0.9618 -0.2295
vn -0.1525 0.9821 -0.1108
vn -0.2644 0.9618 -0.0711
vn -0.2644 0.9618 0.0711
vn -0.1525 0.9821 0.1108
vn -0.1493 0.9618 0.2295
vn 0.2557 0.9618 -0.0979
vn 0.1885 0.9821 0.0000
vn 0.0879 0.9961 0.0000
vn -0.0141 0.9618 0.2734
vn 0.0582 0.9821 0.1792
vn 0.1721 0.9618 0.2129
vn -1.0000 0.0000 0.0000
vn 1.0000 -0.0000 0.0000
vn 0.0447 0.9895 0.1376
vn 0.3985 0.9044 0.1525
vn -0.1170 0.9895 0.0850
vn -0.1170 0.9895 -0.0850
vn 0.0447 0.9895 -0.1376
vn 0.7339 0.6435 0.2174
vn 0.0201 0.6435 0.7652
vn -0.7215 0.6435 0.2555
vn -0.4660 0.6435 -0.6072
vn 0.4335 0.6435 -0.6308
vn 0.7740 0.2910 0.5623
vn -0.2957 0.2910 0.9099
vn -0.9567 0.2910 0.0000
vn -0.2957 0.2910 -0.9099
vn 0.7740 0.2910 -0.5623
vn 0.2327 -0.9044 0.3576
vn -0.2682 -0.9044 0.3318
vn -0.3985 -0.9044 -0.1525
vn 0.0219 -0.9044 -0.4261
vn 0.4120 -0.9044 -0.1108
vn 0.1170 -0.9895 -0.0850
vn 0.2452 -0.9530 -0.1782
vn 0.2327 -0.9044 -0.3576
vn -0.0447 -0.9895 -0.1376
vn -0.0937 -0.9530 -0.2883
vn -0.2682 -0.9044 -0.3318
vn -0.1447 -0.9895 0.0000
vn -0.3031 -0.9530 0.0000
vn -0.3985 -0.9044 0.1525
vn -0.0447 -0.9895 0.1376
vn -0.0937 -0.9530 0.2883
vn 0.0219 -0.9044 0.4261
vn 0.1170 -0.9895 0.0850
vn 0.2452 -0.9530 0.1782
vn 0.4120 -0.9044 0.1108
vn 0.7215 -0.6435 -0.2555
vn 0.7354 -0.4169 -0.5342
vn 0.4660 -0.6435 -0.6072
vn -0.0201 -0.6435 -0.7652
vn -0.2809 -0.4170 -0.8644
vn -0.4335 -0.6435 -0.6308
vn -0.7339 -0.6435 -0.2174
vn -0.9089 -0.4169 0.0000
vn -0.7339 -0.6435 0.2174
vn -0.4335 -0.6435 0.6308
vn -0.2809 -0.4170 0.8644
vn -0.0201 -0.6435 0.7652
vn 0.4660 -0.6435 0.6072
vn 0.7354 -0.4169 0.5342
vn 0.7215 -0.6435 0.2555
vn 0.2957 -0.2910 -0.9099
vn 0.2809 0.4170 -0.8644
vn 0.0201 0.6435 -0.7652
vn -0.7740 -0.2910 -0.5623
vn -0.7354 0.4169 -0.5342
vn -0.7215 0.6435 -0.2555
vn -0.7740 -0.2910 0.5623
vn -0.7354 0.4169 0.5342
vn -0.4660 0.6435 0.6072
vn 0.2957 -0.2910 0.9099
vn 0.2809 0.4170 0.8644
vn 0.4335 0.6435 0.6308
vn 0.9567 -0.2910 0.0000
vn 0.9089 0.4169 0.0000
vn 0.7339 0.6435 -0.2174
vn 0.2682 0.9044 -0.3318
vn 0.0937 0.9530 -0.2883
vn -0.0219 0.9044 -0.4261
vn -0.2327 0.9044 -0.3576
vn -0.2452 0.9530 -0.1782
vn -0.4120 0.9044 -0.1108
vn -0.4120 0.9044 0.1108
vn -0.2452 0.9530 0.1782
vn -0.2327 0.9044 0.3576
vn 0.3985 0.9044 -0.1525
vn 0.3031 0.9530 0.0000
vn 0.1447 0.9895 0.0000
vn -0.0219 0.9044 0.4261
vn 0.0937 0.9530 0.2883
vn 0.2682 0.9044 0.3318
usemtl Bread
s off
f 83//1 99//1 104//1
f 84//2 100//2 106//2
f 85//3 101//3 107//3
f 86//4 102//4 108//4
f 87//5 103//5 105//5
f 105//6 108//6 88//6
f 105//7 103//7 108//7
f 103//8 86//8 108//8
f 108//9 107//9 88//9
f 108//10 102//10 107//10
f 102//11 85//11 107//11
f 107//12 106//12 88//12
f 107//13 101//13 106//13
f 101//14 84//14 106//14
f 106//15 104//15 88//15
f 106//16 100//16 104//16
f 100//17 83//17 104//17
f 104//18 105//18 88//18
f 104//19 99//19 105//19
f 99//20 87//20 105//20
f 90//21 103//21 87//21
f 90//22 97//22 103//22
f 97//23 86//23 103//23
f 98//24 102//24 86//24
f 98//25 95//25 102//25
f 95//26 85//26 102//26
f 96//27 101//27 85//27
f 96//28 93//28 101//28
f 93//29 84//29 101//29
f 94//30 100//30 84//30
f 94//31 91//31 100//31
f 91//32 83//32 100//32
f 92//33 99//33 83//33
f 92//34 89//34 99//34
f 89//35 87//35 99//35
f 97//36 98//36 86//36
f 95//37 96//37 85//37
f 93//38 94//38 84//38
f 91//39 92//39 83//39
f 89//40 90//40 87//40
f 90//41 89//41 92//41 91//41 94//41 93//41 96//41 95//41 98//41 97//41
f 109//42 125//42 130//42
f 110//43 126//43 132//43
f 111//44 127//44 133//44
f 112//45 128//45 134//45
f 113//46 129//46 131//46
f 131//47 134//47 114//47
f 131//48 129//48 134//48
f 129//49 112//49 134//49
f 134//50 133//50 114//50
f 134//51 128//51 133//51
f 128//52 111//52 133//52
f 133//53 132//53 114//53
f 133//54 127//54 132//54
f 127//55 110//55 132//55
f 132//56 130//56 114//56
f 132//57 126//57 130//57
f 126//58 109//58 130//58
f 130//59 131//59 114//59
f 130//60 125//60 131//60
f 125//61 113//61 131//61
f 116//62 129//62 113//62
f 116//63 123//63 129//63
f 123//64 112//64 129//64
f 124//65 128//65 112//65
f 124//66 121//66 128//66
f 121//67 111//67 128//67
f 122//68 127//68 111//68
f 122//69 119//69 127//69
f 119//70 110//70 127//70
f 120//71 126//71 110//71
f 120//72 117//72 126//72
f 117//73 109//73 126//73
f 118//74 125//74 109//74
f 118//75 115//75 125//75
f 115//76 113//76 125//76
f 123//77 124//77 112//77
f 121//78 122//78 111//78
f 119//79 120//79 110//79
f 117//80 118//80 109//80
f 115//81 116//81 113//81
f 116//82 115//82 118//82 117//82 120//82 119//82 122//82 121//82 124//82 123//82
usemtl Material.002
f 1//83 13//83 14//83
f 2//84 16//84 14//84
f 1//85 18//85 13//85
f 1//86 20//86 18//86
f 1//87 17//87 20//87
f 22//88 6//88 27//88 10//88
f 7//89 28//89 23//89
f 8//90 30//90 24//90
f 9//91 31//91 25//91
f 10//92 32//92 26//92
f 11//93 29//93 27//93
f 29//94 12//94 32//94
f 29//95 32//95 27//95
f 27//96 32//96 10//96
f 32//97 12//97 31//97
f 32//98 31//98 26//98
f 26//99 31//99 9//99
f 31//100 12//100 30//100
f 31//101 30//101 25//101
f 25//102 30//102 8//102
f 30//103 12//103 28//103
f 30//104 28//104 24//104
f 24//105 28//105 7//105
f 28//106 12//106 29//106
f 28//107 29//107 23//107
f 23//108 29//108 11//108
f 21//109 5//109 26//109 9//109
f 19//110 4//110 25//110 8//110
f 15//111 3//111 24//111 7//111
f 16//112 2//112 23//112 11//112
f 5//113 22//113 10//113 26//113
f 4//114 21//114 9//114 25//114
f 3//115 19//115 8//115 24//115
f 2//116 15//116 7//116 23//116
f 6//117 16//117 11//117 27//117
f 17//118 6//118 22//118
f 17//119 22//119 20//119
f 20//120 22//120 5//120
f 20//121 5//121 21//121
f 20//122 21//122 18//122
f 18//123 21//123 4//123
f 18//124 4//124 19//124
f 18//125 19//125 13//125
f 13//126 19//126 3//126
f 16//127 6//127 17//127
f 16//128 17//128 14//128
f 14//129 17//129 1//129
f 13//130 3//130 15//130
f 13//131 15//131 14//131
f 14//132 15//132 2//132
usemtl Material.003
f 33//133 34//133 36//133 35//133
f 35//113 36//113 40//113 39//113
f 39//134 40//134 38//134 37//134
f 37//111 38//111 34//111 33//111
f 35//82 39//82 37//82 33//82
f 40//41 36//41 34//41 38//41
usemtl Material.001
f 41//135 53//135 54//135
f 42//136 56//136 54//136
f 41//137 58//137 53//137
f 41//138 60//138 58//138
f 41//139 57//139 60//139
f 42//140 63//140 56//140
f 43//141 65//141 55//141
f 44//142 67//142 59//142
f 45//143 69//143 61//143
f 46//144 71//144 62//144
f 42//145 66//145 63//145
f 43//146 68//146 65//146
f 44//147 70//147 67//147
f 45//148 72//148 69//148
f 46//149 64//149 71//149
f 47//150 78//150 73//150
f 48//151 80//151 74//151
f 49//152 81//152 75//152
f 50//153 82//153 76//153
f 51//154 79//154 77//154
f 79//155 52//155 82//155
f 79//156 82//156 77//156
f 77//157 82//157 50//157
f 82//158 52//158 81//158
f 82//159 81//159 76//159
f 76//160 81//160 49//160
f 81//161 52//161 80//161
f 81//162 80//162 75//162
f 75//163 80//163 48//163
f 80//164 52//164 78//164
f 80//165 78//165 74//165
f 74//166 78//166 47//166
f 78//167 52//167 79//167
f 78//168 79//168 73//168
f 73//169 79//169 51//169
f 64//170 51//170 77//170
f 64//171 77//171 71//171
f 71//172 77//172 50//172
f 72//173 50//173 76//173
f 72//174 76//174 69//174
f 69//175 76//175 49//175
f 70//176 49//176 75//176
f 70//177 75//177 67//177
f 67//178 75//178 48//178
f 68//179 48//179 74//179
f 68//180 74//180 65//180
f 65//181 74//181 47//181
f 66//182 47//182 73//182
f 66//183 73//183 63//183
f 63//184 73//184 51//184
f 71//185 50//185 72//185
f 71//186 72//186 62//186
f 62//187 72//187 45//187
f 69//188 49//188 70//188
f 69//189 70//189 61//189
f 61//190 70//190 44//190
f 67//191 48//191 68//191
f 67//192 68//192 59//192
f 59//193 68//193 43//193
f 65//194 47//194 66//194
f 65//195 66//195 55//195
f 55//196 66//196 42//196
f 63//197 51//197 64//197
f 63//198 64//198 56//198
f 56//199 64//199 46//199
f 57//200 46//200 62//200
f 57//201 62//201 60//201
f 60//202 62//202 45//202
f 60//203 45//203 61//203
f 60//204 61//204 58//204
f 58//205 61//205 44//205
f 58//206 44//206 59//206
f 58//207 59//207 53//207
f 53//208 59//208 43//208
f 56//209 46//209 57//209
f 56//210 57//210 54//210
f 54//211 57//211 41//211
f 53//212 43//212 55//212
f 53//213 55//213 54//213
f 54//214 55//214 42//214
